<svg width="12" height="12" viewBox="0 0 12 12" fill="none" xmlns="http://www.w3.org/2000/svg">
<path fill-rule="evenodd" clip-rule="evenodd" d="M3.60348 11.4005L9.83898 6.12815C9.94384 6.03164 10.0031 5.89824 10.0031 5.75879C10.0031 5.61934 9.94384 5.48593 9.83898 5.38943L3.60348 0.119508C3.50354 0.0343494 3.3719 -0.00825977 3.23865 0.00142002C3.1054 0.0110998 2.98193 0.0722408 2.89648 0.170867L2.11798 1.05887C1.93705 1.2649 1.96175 1.57218 2.17348 1.74911L6.89998 5.66831C6.92758 5.6911 6.94345 5.72432 6.94345 5.75927C6.94345 5.79422 6.92758 5.82743 6.89998 5.85023L2.17298 9.77087C2.07169 9.85598 2.00951 9.97605 1.99998 10.1049C1.98799 10.2341 2.03091 10.3624 2.11898 10.4606L2.89648 11.3491C2.98178 11.4483 3.1054 11.51 3.23898 11.52C3.3724 11.5297 3.50413 11.4865 3.60348 11.4005Z" fill="#263238"/>
</svg>
